<svg id="visual" viewBox="0 0 960 540" width="960" height="540" xmlns="http://www.w3.org/2000/svg" xmlns:xlink="http://www.w3.org/1999/xlink" version="1.1"><rect x="0" y="0" width="960" height="540" fill="#f7f7f7"></rect><defs><linearGradient id="grad1_0" x1="43.8%" y1="0%" x2="100%" y2="100%"><stop offset="14.444444444444446%" stop-color="#6600ff" stop-opacity="1"></stop><stop offset="85.55555555555554%" stop-color="#6600ff" stop-opacity="1"></stop></linearGradient></defs><defs><linearGradient id="grad1_1" x1="43.8%" y1="0%" x2="100%" y2="100%"><stop offset="14.444444444444446%" stop-color="#6600ff" stop-opacity="1"></stop><stop offset="85.55555555555554%" stop-color="#c08dfe" stop-opacity="1"></stop></linearGradient></defs><defs><linearGradient id="grad1_2" x1="43.8%" y1="0%" x2="100%" y2="100%"><stop offset="14.444444444444446%" stop-color="#f7f7f7" stop-opacity="1"></stop><stop offset="85.55555555555554%" stop-color="#c08dfe" stop-opacity="1"></stop></linearGradient></defs><defs><linearGradient id="grad2_0" x1="0%" y1="0%" x2="56.3%" y2="100%"><stop offset="14.444444444444446%" stop-color="#6600ff" stop-opacity="1"></stop><stop offset="85.55555555555554%" stop-color="#6600ff" stop-opacity="1"></stop></linearGradient></defs><defs><linearGradient id="grad2_1" x1="0%" y1="0%" x2="56.3%" y2="100%"><stop offset="14.444444444444446%" stop-color="#c08dfe" stop-opacity="1"></stop><stop offset="85.55555555555554%" stop-color="#6600ff" stop-opacity="1"></stop></linearGradient></defs><defs><linearGradient id="grad2_2" x1="0%" y1="0%" x2="56.3%" y2="100%"><stop offset="14.444444444444446%" stop-color="#c08dfe" stop-opacity="1"></stop><stop offset="85.55555555555554%" stop-color="#f7f7f7" stop-opacity="1"></stop></linearGradient></defs><g transform="translate(960, 0)"><path d="M0 486C-70.2 485.8 -140.3 485.5 -186 449C-231.6 412.5 -252.8 339.7 -291.3 291.3C-329.9 243 -385.9 219 -421.3 174.5C-456.6 130 -471.3 65 -486 0L0 0Z" fill="#dec2fb"></path><path d="M0 324C-46.8 323.8 -93.6 323.7 -124 299.3C-154.4 275 -168.5 226.5 -194.2 194.2C-219.9 162 -257.3 146 -280.9 116.3C-304.4 86.7 -314.2 43.3 -324 0L0 0Z" fill="#9a56ff"></path><path d="M0 162C-23.4 161.9 -46.8 161.8 -62 149.7C-77.2 137.5 -84.3 113.2 -97.1 97.1C-110 81 -128.6 73 -140.4 58.2C-152.2 43.3 -157.1 21.7 -162 0L0 0Z" fill="#6600ff"></path></g><g transform="translate(0, 540)"><path d="M0 -486C64.8 -479.9 129.6 -473.7 186 -449C242.4 -424.3 290.4 -381 335.2 -335.2C380 -289.4 421.6 -241.1 446.2 -184.8C470.8 -128.6 478.4 -64.3 486 0L0 0Z" fill="#dec2fb"></path><path d="M0 -324C43.2 -319.9 86.4 -315.8 124 -299.3C161.6 -282.9 193.6 -254 223.4 -223.4C253.3 -192.9 281.1 -160.7 297.5 -123.2C313.9 -85.7 318.9 -42.9 324 0L0 0Z" fill="#9a56ff"></path><path d="M0 -162C21.6 -160 43.2 -157.9 62 -149.7C80.8 -141.4 96.8 -127 111.7 -111.7C126.7 -96.5 140.5 -80.4 148.7 -61.6C156.9 -42.9 159.5 -21.4 162 0L0 0Z" fill="#6600ff"></path></g></svg>