<svg id="visual" viewBox="0 0 960 540" width="960" height="540" xmlns="http://www.w3.org/2000/svg" xmlns:xlink="http://www.w3.org/1999/xlink" version="1.1"><rect x="0" y="0" width="960" height="540" fill="#19f30b"></rect><defs><linearGradient id="grad1_0" x1="43.8%" y1="0%" x2="100%" y2="100%"><stop offset="14.444444444444446%" stop-color="#19f30b" stop-opacity="1"></stop><stop offset="85.55555555555554%" stop-color="#19f30b" stop-opacity="1"></stop></linearGradient></defs><defs><linearGradient id="grad2_0" x1="0%" y1="0%" x2="56.3%" y2="100%"><stop offset="14.444444444444446%" stop-color="#19f30b" stop-opacity="1"></stop><stop offset="85.55555555555554%" stop-color="#19f30b" stop-opacity="1"></stop></linearGradient></defs><g transform="translate(960, 0)"><path d="M0 486C-51.3 451 -102.6 416 -164.9 398.2C-227.2 380.3 -300.5 379.6 -343.7 343.7C-386.8 307.7 -399.8 236.5 -418.5 173.4C-437.2 110.2 -461.6 55.1 -486 0L0 0Z" fill="#6600FF"></path></g><g transform="translate(0, 540)"><path d="M0 -486C49 -438.2 97.9 -390.4 151.9 -366.8C205.9 -343.2 264.9 -343.9 318.9 -318.9C372.9 -294 422 -243.4 449 -186C476 -128.6 481 -64.3 486 0L0 0Z" fill="#6600FF"></path></g></svg>