<svg id="visual" viewBox="0 0 960 540" width="960" height="540" xmlns="http://www.w3.org/2000/svg" xmlns:xlink="http://www.w3.org/1999/xlink" version="1.1"><rect x="0" y="0" width="960" height="540" fill="#080909"></rect><path d="M0 318L40 319.8C80 321.7 160 325.3 240 331.8C320 338.3 400 347.7 480 350.7C560 353.7 640 350.3 720 343.3C800 336.3 880 325.7 920 320.3L960 315L960 541L920 541C880 541 800 541 720 541C640 541 560 541 480 541C400 541 320 541 240 541C160 541 80 541 40 541L0 541Z" fill="#31d721" stroke-linecap="round" stroke-linejoin="miter"></path></svg>