<svg id="visual" viewBox="0 0 960 540" width="960" height="540" xmlns="http://www.w3.org/2000/svg" xmlns:xlink="http://www.w3.org/1999/xlink" version="1.1"><rect x="0" y="0" width="960" height="540" fill="#000000"></rect><path d="M0 183L22.8 193.2C45.7 203.3 91.3 223.7 137 243C182.7 262.3 228.3 280.7 274 291.7C319.7 302.7 365.3 306.3 411.2 302.2C457 298 503 286 548.8 277.5C594.7 269 640.3 264 686 271.2C731.7 278.3 777.3 297.7 823 306C868.7 314.3 914.3 311.7 937.2 310.3L960 309L960 541L937.2 541C914.3 541 868.7 541 823 541C777.3 541 731.7 541 686 541C640.3 541 594.7 541 548.8 541C503 541 457 541 411.2 541C365.3 541 319.7 541 274 541C228.3 541 182.7 541 137 541C91.3 541 45.7 541 22.8 541L0 541Z" fill="#fae869"></path><path d="M0 341L22.8 325.3C45.7 309.7 91.3 278.3 137 281.2C182.7 284 228.3 321 274 322.7C319.7 324.3 365.3 290.7 411.2 280.7C457 270.7 503 284.3 548.8 298.8C594.7 313.3 640.3 328.7 686 326.3C731.7 324 777.3 304 823 305C868.7 306 914.3 328 937.2 339L960 350L960 541L937.2 541C914.3 541 868.7 541 823 541C777.3 541 731.7 541 686 541C640.3 541 594.7 541 548.8 541C503 541 457 541 411.2 541C365.3 541 319.7 541 274 541C228.3 541 182.7 541 137 541C91.3 541 45.7 541 22.8 541L0 541Z" fill="#deea4b"></path><path d="M0 307L22.8 319.3C45.7 331.7 91.3 356.3 137 357.8C182.7 359.3 228.3 337.7 274 336.2C319.7 334.7 365.3 353.3 411.2 362.2C457 371 503 370 548.8 364C594.7 358 640.3 347 686 351.8C731.7 356.7 777.3 377.3 823 383.7C868.7 390 914.3 382 937.2 378L960 374L960 541L937.2 541C914.3 541 868.7 541 823 541C777.3 541 731.7 541 686 541C640.3 541 594.7 541 548.8 541C503 541 457 541 411.2 541C365.3 541 319.7 541 274 541C228.3 541 182.7 541 137 541C91.3 541 45.7 541 22.8 541L0 541Z" fill="#b8ec2e"></path><path d="M0 421L22.8 420C45.7 419 91.3 417 137 421.3C182.7 425.7 228.3 436.3 274 431.3C319.7 426.3 365.3 405.7 411.2 399.3C457 393 503 401 548.8 402.5C594.7 404 640.3 399 686 404.2C731.7 409.3 777.3 424.7 823 430.5C868.7 436.3 914.3 432.7 937.2 430.8L960 429L960 541L937.2 541C914.3 541 868.7 541 823 541C777.3 541 731.7 541 686 541C640.3 541 594.7 541 548.8 541C503 541 457 541 411.2 541C365.3 541 319.7 541 274 541C228.3 541 182.7 541 137 541C91.3 541 45.7 541 22.8 541L0 541Z" fill="#84ee15"></path><path d="M0 458L22.8 460.8C45.7 463.7 91.3 469.3 137 469.2C182.7 469 228.3 463 274 460.3C319.7 457.7 365.3 458.3 411.2 454.2C457 450 503 441 548.8 440.2C594.7 439.3 640.3 446.7 686 455.8C731.7 465 777.3 476 823 482.5C868.7 489 914.3 491 937.2 492L960 493L960 541L937.2 541C914.3 541 868.7 541 823 541C777.3 541 731.7 541 686 541C640.3 541 594.7 541 548.8 541C503 541 457 541 411.2 541C365.3 541 319.7 541 274 541C228.3 541 182.7 541 137 541C91.3 541 45.7 541 22.8 541L0 541Z" fill="#0def14"></path></svg>